<svg xmlns="http://www.w3.org/2000/svg" width="800" height="400" viewBox="0 0 800 400">
  <defs>
    <linearGradient id="bg2" x1="0%" y1="0%" x2="100%" y2="100%">
      <stop offset="0%" style="stop-color:#0a0a1a"/>
      <stop offset="100%" style="stop-color:#1a1a2e"/>
    </linearGradient>
  </defs>
  <rect width="800" height="400" fill="url(#bg2)"/>
  <!-- Browser frame -->
  <rect x="80" y="40" width="640" height="320" rx="8" fill="#0f0f23" stroke="#2a2a4a" stroke-width="1"/>
  <circle cx="108" cy="60" r="5" fill="#ff5f56"/>
  <circle cx="128" cy="60" r="5" fill="#ffbd2e"/>
  <circle cx="148" cy="60" r="5" fill="#27ca40"/>
  <rect x="170" y="54" width="180" height="14" rx="7" fill="#1a1a35"/>
  <text x="205" y="65" font-family="Inter,sans-serif" font-size="8" fill="#666">andyz.my.id</text>
  <!-- Content -->
  <rect x="100" y="85" width="600" height="4" rx="2" fill="#ff6b35" opacity="0.8"/>
  <!-- Hero text -->
  <text x="160" y="150" font-family="Inter,sans-serif" font-size="14" fill="#ff6b35" letter-spacing="3">WEB DEVELOPER</text>
  <text x="160" y="195" font-family="Inter,sans-serif" font-size="36" font-weight="900" fill="#fff">Hello, I'm</text>
  <text x="160" y="245" font-family="Inter,sans-serif" font-size="48" font-weight="900" fill="#fff">Andy</text>
  <text x="355" y="245" font-family="Inter,sans-serif" font-size="48" font-weight="900" fill="#ff6b35">.</text>
  <rect x="160" y="265" width="250" height="6" rx="3" fill="#2a2a4a"/>
  <rect x="160" y="280" width="200" height="6" rx="3" fill="#2a2a4a"/>
  <rect x="160" y="305" width="120" height="32" rx="6" fill="#ff6b35"/>
  <text x="190" y="325" font-family="Inter,sans-serif" font-size="11" font-weight="700" fill="#0a0a1a">Hubungi Saya</text>
  <!-- Profile placeholder -->
  <rect x="500" y="110" width="180" height="220" rx="12" fill="#12122a" stroke="#ff6b35" stroke-width="1" opacity="0.3"/>
  <circle cx="590" cy="190" r="40" fill="#1a1a35"/>
  <rect x="540" y="250" width="100" height="6" rx="3" fill="#2a2a4a"/>
  <rect x="555" y="265" width="70" height="6" rx="3" fill="#2a2a4a"/>
</svg>
