<svg xmlns="http://www.w3.org/2000/svg" width="800" height="400" viewBox="0 0 800 400">
  <defs>
    <linearGradient id="bg" x1="0%" y1="0%" x2="100%" y2="100%">
      <stop offset="0%" style="stop-color:#1a1a2e"/>
      <stop offset="100%" style="stop-color:#16213e"/>
    </linearGradient>
  </defs>
  <rect width="800" height="400" fill="url(#bg)"/>
  <!-- Browser frame -->
  <rect x="80" y="40" width="640" height="320" rx="8" fill="#0f0f23" stroke="#2a2a4a" stroke-width="1"/>
  <circle cx="108" cy="60" r="5" fill="#ff5f56"/>
  <circle cx="128" cy="60" r="5" fill="#ffbd2e"/>
  <circle cx="148" cy="60" r="5" fill="#27ca40"/>
  <rect x="170" y="54" width="200" height="14" rx="7" fill="#1a1a35"/>
  <text x="210" y="65" font-family="Inter,sans-serif" font-size="8" fill="#666">xirpl2.vercel.app</text>
  <!-- Content -->
  <rect x="100" y="85" width="600" height="4" rx="2" fill="#ff6b35" opacity="0.8"/>
  <text x="400" y="140" font-family="Inter,sans-serif" font-size="28" font-weight="800" fill="#fff" text-anchor="middle">XI RPL 2</text>
  <text x="400" y="170" font-family="Inter,sans-serif" font-size="14" fill="#888" text-anchor="middle">Class Website — React + Firebase</text>
  <!-- Cards -->
  <rect x="120" y="200" width="170" height="100" rx="8" fill="#12122a" stroke="#1a1a35" stroke-width="1"/>
  <rect x="140" y="220" width="60" height="8" rx="4" fill="#ff6b35" opacity="0.6"/>
  <rect x="140" y="240" width="130" height="6" rx="3" fill="#2a2a4a"/>
  <rect x="140" y="255" width="100" height="6" rx="3" fill="#2a2a4a"/>
  <rect x="140" y="270" width="110" height="6" rx="3" fill="#2a2a4a"/>
  <rect x="315" y="200" width="170" height="100" rx="8" fill="#12122a" stroke="#1a1a35" stroke-width="1"/>
  <rect x="335" y="220" width="60" height="8" rx="4" fill="#ff6b35" opacity="0.6"/>
  <rect x="335" y="240" width="130" height="6" rx="3" fill="#2a2a4a"/>
  <rect x="335" y="255" width="100" height="6" rx="3" fill="#2a2a4a"/>
  <rect x="335" y="270" width="110" height="6" rx="3" fill="#2a2a4a"/>
  <rect x="510" y="200" width="170" height="100" rx="8" fill="#12122a" stroke="#1a1a35" stroke-width="1"/>
  <rect x="530" y="220" width="60" height="8" rx="4" fill="#ff6b35" opacity="0.6"/>
  <rect x="530" y="240" width="130" height="6" rx="3" fill="#2a2a4a"/>
  <rect x="530" y="255" width="100" height="6" rx="3" fill="#2a2a4a"/>
  <rect x="530" y="270" width="110" height="6" rx="3" fill="#2a2a4a"/>
</svg>
